<svg width="1024" height="1024" viewBox="0 0 1024 1024" fill="none" xmlns="http://www.w3.org/2000/svg">
<rect width="1024" height="1024" fill="white"/>
<path d="M300.849 398.622H274.287C273.529 394.266 272.133 390.407 270.097 387.045C268.061 383.636 265.527 380.748 262.497 378.381C259.467 376.013 256.01 374.238 252.128 373.054C248.293 371.823 244.15 371.207 239.699 371.207C231.792 371.207 224.784 373.196 218.676 377.173C212.568 381.103 207.786 386.88 204.33 394.503C200.873 402.079 199.145 411.335 199.145 422.273C199.145 433.4 200.873 442.775 204.33 450.398C207.833 457.973 212.616 463.703 218.676 467.585C224.784 471.42 231.768 473.338 239.628 473.338C243.984 473.338 248.056 472.77 251.844 471.634C255.679 470.45 259.112 468.722 262.142 466.449C265.22 464.176 267.8 461.383 269.884 458.068C272.014 454.754 273.482 450.966 274.287 446.705L300.849 446.847C299.855 453.759 297.701 460.246 294.386 466.307C291.119 472.367 286.834 477.718 281.531 482.358C276.228 486.951 270.026 490.549 262.923 493.153C255.821 495.71 247.938 496.989 239.273 496.989C226.489 496.989 215.078 494.029 205.04 488.111C195.002 482.192 187.095 473.646 181.318 462.472C175.542 451.297 172.653 437.898 172.653 422.273C172.653 406.6 175.565 393.201 181.389 382.074C187.213 370.9 195.144 362.353 205.182 356.435C215.22 350.516 226.583 347.557 239.273 347.557C247.369 347.557 254.898 348.693 261.858 350.966C268.818 353.239 275.021 356.577 280.466 360.98C285.911 365.336 290.385 370.687 293.889 377.031C297.44 383.329 299.76 390.526 300.849 398.622ZM360.428 497.131C349.775 497.131 340.542 494.787 332.729 490.099C324.917 485.412 318.856 478.854 314.548 470.426C310.286 461.998 308.156 452.15 308.156 440.881C308.156 429.612 310.286 419.74 314.548 411.264C318.856 402.789 324.917 396.207 332.729 391.52C340.542 386.832 349.775 384.489 360.428 384.489C371.082 384.489 380.315 386.832 388.127 391.52C395.94 396.207 401.977 402.789 406.238 411.264C410.547 419.74 412.701 429.612 412.701 440.881C412.701 452.15 410.547 461.998 406.238 470.426C401.977 478.854 395.94 485.412 388.127 490.099C380.315 494.787 371.082 497.131 360.428 497.131ZM360.57 476.534C366.347 476.534 371.176 474.948 375.059 471.776C378.942 468.556 381.83 464.247 383.724 458.849C385.665 453.452 386.636 447.438 386.636 440.81C386.636 434.134 385.665 428.097 383.724 422.699C381.83 417.254 378.942 412.921 375.059 409.702C371.176 406.482 366.347 404.872 360.57 404.872C354.652 404.872 349.728 406.482 345.798 409.702C341.915 412.921 339.003 417.254 337.062 422.699C335.168 428.097 334.221 434.134 334.221 440.81C334.221 447.438 335.168 453.452 337.062 458.849C339.003 464.247 341.915 468.556 345.798 471.776C349.728 474.948 354.652 476.534 360.57 476.534ZM471.108 497.131C460.455 497.131 451.222 494.787 443.409 490.099C435.597 485.412 429.536 478.854 425.227 470.426C420.966 461.998 418.835 452.15 418.835 440.881C418.835 429.612 420.966 419.74 425.227 411.264C429.536 402.789 435.597 396.207 443.409 391.52C451.222 386.832 460.455 384.489 471.108 384.489C481.761 384.489 490.994 386.832 498.807 391.52C506.619 396.207 512.656 402.789 516.918 411.264C521.226 419.74 523.381 429.612 523.381 440.881C523.381 452.15 521.226 461.998 516.918 470.426C512.656 478.854 506.619 485.412 498.807 490.099C490.994 494.787 481.761 497.131 471.108 497.131ZM471.25 476.534C477.027 476.534 481.856 474.948 485.739 471.776C489.621 468.556 492.509 464.247 494.403 458.849C496.345 453.452 497.315 447.438 497.315 440.81C497.315 434.134 496.345 428.097 494.403 422.699C492.509 417.254 489.621 412.921 485.739 409.702C481.856 406.482 477.027 404.872 471.25 404.872C465.331 404.872 460.407 406.482 456.477 409.702C452.595 412.921 449.683 417.254 447.741 422.699C445.848 428.097 444.901 434.134 444.901 440.81C444.901 447.438 445.848 453.452 447.741 458.849C449.683 464.247 452.595 468.556 456.477 471.776C460.407 474.948 465.331 476.534 471.25 476.534ZM534.202 535.909V385.909H559.487V403.949H560.978C562.304 401.297 564.174 398.48 566.589 395.497C569.004 392.467 572.271 389.886 576.39 387.756C580.509 385.578 585.765 384.489 592.157 384.489C600.585 384.489 608.184 386.643 614.955 390.952C621.773 395.213 627.171 401.534 631.148 409.915C635.173 418.248 637.185 428.475 637.185 440.597C637.185 452.576 635.22 462.756 631.29 471.136C627.361 479.517 622.01 485.909 615.239 490.312C608.469 494.716 600.798 496.918 592.228 496.918C585.978 496.918 580.793 495.876 576.674 493.793C572.555 491.709 569.24 489.2 566.731 486.264C564.269 483.281 562.351 480.464 560.978 477.812H559.913V535.909H534.202ZM559.415 440.455C559.415 447.509 560.41 453.688 562.398 458.991C564.434 464.295 567.346 468.437 571.134 471.42C574.969 474.356 579.61 475.824 585.055 475.824C590.737 475.824 595.495 474.309 599.33 471.278C603.165 468.201 606.054 464.01 607.995 458.707C609.984 453.357 610.978 447.273 610.978 440.455C610.978 433.684 610.007 427.67 608.066 422.415C606.125 417.159 603.237 413.04 599.401 410.057C595.566 407.074 590.784 405.582 585.055 405.582C579.562 405.582 574.898 407.027 571.063 409.915C567.228 412.803 564.316 416.851 562.327 422.06C560.386 427.268 559.415 433.4 559.415 440.455ZM696.498 497.131C685.56 497.131 676.114 494.858 668.16 490.312C660.253 485.72 654.168 479.233 649.907 470.852C645.646 462.424 643.515 452.505 643.515 441.094C643.515 429.872 645.646 420.024 649.907 411.548C654.216 403.026 660.229 396.397 667.947 391.662C675.665 386.88 684.732 384.489 695.148 384.489C701.872 384.489 708.217 385.578 714.183 387.756C720.196 389.886 725.499 393.201 730.092 397.699C734.732 402.197 738.378 407.926 741.029 414.886C743.681 421.799 745.006 430.038 745.006 439.602V447.486H655.589V430.156H720.362C720.314 425.232 719.249 420.852 717.165 417.017C715.082 413.134 712.17 410.08 708.43 407.855C704.737 405.63 700.428 404.517 695.504 404.517C690.248 404.517 685.631 405.795 681.654 408.352C677.677 410.862 674.576 414.176 672.35 418.295C670.172 422.367 669.059 426.842 669.012 431.719V446.847C669.012 453.191 670.172 458.636 672.492 463.182C674.812 467.68 678.056 471.136 682.222 473.551C686.389 475.919 691.266 477.102 696.853 477.102C700.594 477.102 703.979 476.581 707.009 475.54C710.04 474.451 712.667 472.865 714.893 470.781C717.118 468.698 718.799 466.117 719.935 463.04L743.941 465.739C742.426 472.083 739.538 477.623 735.276 482.358C731.062 487.045 725.665 490.691 719.083 493.295C712.502 495.852 704.973 497.131 696.498 497.131ZM755.757 495V385.909H780.686V404.091H781.822C783.811 397.794 787.22 392.94 792.05 389.531C796.927 386.075 802.49 384.347 808.74 384.347C810.161 384.347 811.747 384.418 813.499 384.56C815.298 384.654 816.789 384.82 817.973 385.057V408.707C816.884 408.329 815.156 407.997 812.788 407.713C810.468 407.382 808.219 407.216 806.041 407.216C801.354 407.216 797.14 408.234 793.399 410.27C789.706 412.259 786.794 415.028 784.663 418.58C782.533 422.131 781.467 426.226 781.467 430.866V495H755.757ZM176.347 675V529.545H230.892C242.066 529.545 251.441 531.487 259.017 535.369C266.64 539.252 272.393 544.697 276.276 551.705C280.205 558.665 282.17 566.785 282.17 576.065C282.17 585.393 280.182 593.49 276.205 600.355C272.275 607.173 266.474 612.453 258.804 616.193C251.134 619.886 241.711 621.733 230.537 621.733H191.688V599.858H226.986C233.52 599.858 238.87 598.958 243.037 597.159C247.204 595.312 250.281 592.637 252.27 589.134C254.306 585.582 255.324 581.226 255.324 576.065C255.324 570.904 254.306 566.501 252.27 562.855C250.234 559.162 247.133 556.368 242.966 554.474C238.799 552.533 233.425 551.562 226.844 551.562H202.696V675H176.347ZM251.489 609.091L287.497 675H258.094L222.724 609.091H251.489ZM363.82 629.119V565.909H389.53V675H364.601V655.611H363.464C361.002 661.719 356.954 666.714 351.32 670.597C345.732 674.479 338.843 676.42 330.652 676.42C323.502 676.42 317.181 674.834 311.689 671.662C306.244 668.442 301.982 663.778 298.905 657.67C295.827 651.515 294.288 644.081 294.288 635.369V565.909H319.999V631.392C319.999 638.305 321.893 643.797 325.68 647.869C329.468 651.941 334.44 653.977 340.595 653.977C344.383 653.977 348.053 653.054 351.604 651.207C355.155 649.361 358.067 646.615 360.339 642.969C362.66 639.276 363.82 634.659 363.82 629.119ZM430.678 611.08V675H404.968V565.909H429.542V584.446H430.82C433.33 578.338 437.331 573.485 442.823 569.886C448.363 566.288 455.205 564.489 463.349 564.489C470.877 564.489 477.435 566.098 483.022 569.318C488.656 572.538 493.013 577.202 496.09 583.31C499.215 589.418 500.754 596.828 500.707 605.54V675H474.996V609.517C474.996 602.225 473.103 596.52 469.315 592.401C465.574 588.281 460.389 586.222 453.761 586.222C449.263 586.222 445.262 587.216 441.758 589.205C438.301 591.146 435.579 593.963 433.59 597.656C431.649 601.349 430.678 605.824 430.678 611.08ZM527.917 715.909C524.413 715.909 521.17 715.625 518.187 715.057C515.251 714.536 512.907 713.92 511.156 713.21L517.121 693.182C520.862 694.271 524.2 694.792 527.136 694.744C530.071 694.697 532.652 693.774 534.877 691.974C537.15 690.223 539.067 687.287 540.63 683.168L542.832 677.273L503.272 565.909H530.545L555.687 648.295H556.823L582.036 565.909H609.38L565.701 688.21C563.665 693.987 560.966 698.935 557.604 703.054C554.243 707.221 550.123 710.393 545.246 712.571C540.417 714.796 534.64 715.909 527.917 715.909ZM644.438 677.202C637.525 677.202 631.299 675.971 625.759 673.509C620.267 670.999 615.911 667.306 612.691 662.429C609.519 657.552 607.933 651.539 607.933 644.389C607.933 638.234 609.069 633.144 611.342 629.119C613.614 625.095 616.716 621.875 620.646 619.46C624.576 617.045 629.003 615.223 633.927 613.991C638.898 612.713 644.036 611.79 649.339 611.222C655.731 610.559 660.915 609.967 664.893 609.446C668.87 608.878 671.758 608.026 673.558 606.889C675.404 605.705 676.327 603.883 676.327 601.42V600.994C676.327 595.644 674.741 591.501 671.569 588.565C668.397 585.63 663.827 584.162 657.862 584.162C651.564 584.162 646.569 585.535 642.876 588.281C639.23 591.027 636.768 594.271 635.489 598.011L611.484 594.602C613.378 587.973 616.503 582.434 620.859 577.983C625.215 573.485 630.541 570.123 636.839 567.898C643.136 565.625 650.096 564.489 657.719 564.489C662.975 564.489 668.207 565.104 673.415 566.335C678.624 567.566 683.382 569.602 687.691 572.443C692 575.237 695.456 579.048 698.06 583.878C700.712 588.707 702.038 594.744 702.038 601.989V675H677.322V660.014H676.469C674.907 663.045 672.705 665.885 669.864 668.537C667.071 671.141 663.543 673.248 659.282 674.858C655.068 676.42 650.12 677.202 644.438 677.202ZM651.114 658.31C656.275 658.31 660.75 657.292 664.538 655.256C668.326 653.172 671.237 650.426 673.273 647.017C675.357 643.608 676.398 639.891 676.398 635.866V623.011C675.594 623.674 674.22 624.29 672.279 624.858C670.385 625.426 668.254 625.923 665.887 626.349C663.52 626.776 661.176 627.154 658.856 627.486C656.536 627.817 654.523 628.101 652.819 628.338C648.984 628.859 645.551 629.711 642.521 630.895C639.49 632.079 637.099 633.736 635.347 635.866C633.595 637.95 632.719 640.649 632.719 643.963C632.719 648.698 634.448 652.273 637.904 654.688C641.361 657.102 645.764 658.31 651.114 658.31ZM742.6 611.08V675H716.89V565.909H741.464V584.446H742.742C745.252 578.338 749.253 573.485 754.745 569.886C760.285 566.288 767.127 564.489 775.271 564.489C782.799 564.489 789.357 566.098 794.944 569.318C800.578 572.538 804.934 577.202 808.012 583.31C811.137 589.418 812.676 596.828 812.629 605.54V675H786.918V609.517C786.918 602.225 785.024 596.52 781.237 592.401C777.496 588.281 772.311 586.222 765.683 586.222C761.184 586.222 757.183 587.216 753.68 589.205C750.223 591.146 747.501 593.963 745.512 597.656C743.571 601.349 742.6 605.824 742.6 611.08Z" fill="black"/>
</svg>
